<svg id="Layer_1" data-name="Layer 1" xmlns="http://www.w3.org/2000/svg" viewBox="0 0 46.76 69.7"><path d="M39.011,23.38a15.624,15.624,0,0,1-2.38,8.3L23.381,54.34,10.131,31.68l-.02-.05a15.484,15.484,0,0,1-2.36-8.25,15.63,15.63,0,0,1,31.26,0Z" transform="translate(-0.001 0)" style="fill:#231f20"/><path d="M23.381,0A23.385,23.385,0,0,0,3.531,35.74L23.381,69.7l19.85-33.96A23.385,23.385,0,0,0,23.381,0Zm16.24,33.49L23.381,61.28,7.121,33.46a19.131,19.131,0,1,1,32.5.03Z" transform="translate(-0.001 0)" style="fill:#231f20"/><path d="M23.381,4.25A19.131,19.131,0,0,0,7.121,33.46l16.26,27.82,16.24-27.79A19.13,19.13,0,0,0,23.381,4.25Zm13.25,27.43L23.381,54.34,10.131,31.68l-.02-.05a15.484,15.484,0,0,1-2.36-8.25,15.63,15.63,0,1,1,28.88,8.3Z" transform="translate(-0.001 0)" style="fill:#d1d1d1"/><path d="M30.635,14.63a.161.161,0,0,0-.126.059l-5.835,6.875-1.295,1.525-1.41,1.662-.793.933-1.391,1.641a.168.168,0,0,0-.039.107V29.98H16.783V18.639l4.5,5.3,1.41-1.662-6.441-7.59a.161.161,0,0,0-.126-.059H14.8a.166.166,0,0,0-.166.166v17.17a.166.166,0,0,0,.166.166H31.965a.166.166,0,0,0,.166-.166V14.8a.166.166,0,0,0-.166-.166ZM24.862,29.98H21.9V28.161l1.481-1.747,1.483,1.747Zm5.117,0H27.014V27.432a.168.168,0,0,0-.039-.107l-2.184-2.574,5.188-6.112Z" transform="translate(-0.001 0)" style="fill:#ed6830"/></svg>