<svg xmlns="http://www.w3.org/2000/svg" viewBox="0 0 64 64"><path d="M62.28,32.45H60.44v-.08a8.4,8.4,0,0,0-2.28-5.75V8.2a3.94,3.94,0,0,0-3.95-3.94H9.79A3.94,3.94,0,0,0,5.84,8.2V26.62a8.4,8.4,0,0,0-2.28,5.75v.08H1.72A1.71,1.71,0,0,0,0,34.16v17a1.71,1.71,0,0,0,1.71,1.71H3.34v6.89h5V52.85H55.66v6.89h5V52.85h1.62A1.71,1.71,0,0,0,64,51.14v-17A1.71,1.71,0,0,0,62.28,32.45ZM5,37.45H59v10.4H5ZM34.5,23.88V20h6.83a4.26,4.26,0,0,1,4.33,3.85Zm-5,0H18.34A4.26,4.26,0,0,1,22.67,20H29.5ZM10.84,9.26H53.16V23.9H50.65A9.22,9.22,0,0,0,41.33,15H22.67a9.22,9.22,0,0,0-9.32,8.87H10.84ZM8.56,32.37A3.43,3.43,0,0,1,12,29H52a3.43,3.43,0,0,1,3.43,3.42v.08H8.56Z"/></svg>