<svg xmlns="http://www.w3.org/2000/svg" viewBox="0 0 64 64"><defs><style>.cls-1{fill:#ed1c24;}</style></defs><g id="outlines-expanded"><g id="bed-stroked"><path class="cls-1" d="M4.17,12.42a1.5,1.5,0,0,1,1.5,1.5V36.58H58.33V27.92a1.5,1.5,0,0,1,1.5-1.5H61a1.5,1.5,0,0,1,1.5,1.5V51.58H58.33V45.14H5.67v6.44H1.5V13.92A1.5,1.5,0,0,1,3,12.42H4.17m0-1.5H3a3,3,0,0,0-3,3V53.08H7.17V46.64H56.83v6.44H64V27.92a3,3,0,0,0-3-3H59.83a3,3,0,0,0-3,3v7.16H7.17V13.92a3,3,0,0,0-3-3Z"/><path class="cls-1" d="M55,29.47a1.87,1.87,0,0,1,1.87,1.87v3.74H23.36V31.34a1.87,1.87,0,0,1,1.87-1.87H55M55,28H25.23a3.37,3.37,0,0,0-3.37,3.37v5.24H58.33V31.34A3.37,3.37,0,0,0,55,28Z"/><path class="cls-1" d="M21.85,32.58v2.5H7.17v-2.5H21.85m1.5-1.5H5.67v5.5H23.35v-5.5Z"/><path class="cls-1" d="M18.82,28.07a.71.71,0,0,1,.71.71v2.3h-10v-2.3a.71.71,0,0,1,.71-.71h8.62m0-1.5H10.2A2.21,2.21,0,0,0,8,28.78v2.73a1.07,1.07,0,0,0,1.08,1.07H20A1.07,1.07,0,0,0,21,31.51V28.78a2.21,2.21,0,0,0-2.21-2.21Z"/><path class="cls-1" d="M56.72,46.63v1.11H7.06V46.63H56.72m1.5-1.5H5.56v4.11H58.22V45.13Z"/></g></g></svg>