<svg id="Layer_1" data-name="Layer 1" xmlns="http://www.w3.org/2000/svg" viewBox="0 0 57.916 58.254"><path d="M48.691,61.127a7.181,7.181,0,0,1-2.209-.384c-4.054-1.316-7.848-3.695-11.437-5.942A84.474,84.474,0,0,1,20.809,43.993,75.765,75.765,0,0,1,9.424,29.465q-2.224-3.6-4.141-7.38a31.206,31.206,0,0,1-1.952-4.479,6.565,6.565,0,0,1,1.388-6.2c1.269-1.576,2.645-3.06,4.009-4.552a17.147,17.147,0,0,1,3.737-3.6,3.224,3.224,0,0,1,1.52-.382,3.877,3.877,0,0,1,2.857,1.511c2.817,3.1,5.636,6.225,8.6,9.187.4.405,1.646,1.816.622,2.977-1.112,1.26-2.918,3.243-5.205,5.53l-1.3,1.3.561,1.745c1.609,5,5.112,9.246,9,12.679a28.959,28.959,0,0,0,9.852,6.154l1.744.562,1.3-1.3c2.286-2.286,4.269-4.092,5.53-5.2a1.327,1.327,0,0,1,.924-.417,3.492,3.492,0,0,1,2.053,1.038c2.966,2.963,6.085,5.78,9.187,8.6,2.407,2.188.906,4.49-.812,6.456a41.5,41.5,0,0,1-4.938,4.786C52.415,59.739,50.8,61.127,48.691,61.127Z" transform="translate(-3.042 -2.873)"/></svg>