<svg xmlns="http://www.w3.org/2000/svg" viewBox="0 0 64 64"><polygon points="60.15 44.42 60.15 59.63 59.63 60.15 44.42 60.15 43.9 59.63 43.9 55.68 44.42 55.16 44.41 55.15 51.61 55.15 39.99 43.53 40 43.53 40 42.8 42.8 40 43.53 40 55.15 51.61 55.15 44.41 55.16 44.42 55.68 43.9 59.63 43.9 60.15 44.42"/><polygon class="a" points="23.99 20.47 23.99 21.2 21.2 23.99 20.46 23.99 8.85 12.39 8.85 19.59 8.34 20.1 4.37 20.1 3.85 19.6 3.85 4.37 4.37 3.85 19.59 3.85 19.58 3.86 20.1 4.38 20.1 8.33 19.58 8.85 12.38 8.85 23.99 20.47"/><polygon class="a" points="60.15 4.37 60.15 19.59 59.64 20.1 55.67 20.1 55.16 19.59 55.15 19.6 55.15 12.39 43.54 23.99 42.8 23.99 40.01 21.2 40.01 20.46 51.61 8.85 44.42 8.85 43.9 8.33 43.9 4.38 44.42 3.86 44.41 3.85 59.63 3.85 60.15 4.37"/><polygon class="a" points="24 43.53 12.38 55.15 19.59 55.15 19.58 55.16 20.1 55.68 20.1 59.63 19.58 60.15 4.37 60.15 3.85 59.63 3.85 44.41 3.86 44.42 4.38 43.9 8.33 43.9 8.85 44.42 8.85 51.61 20.47 40 21.2 40 24 42.8 24 43.53"/></svg>