<svg xmlns="http://www.w3.org/2000/svg" viewBox="0 0 64 64"><path d="M61.43,29.35a5.83,5.83,0,0,0-5.83-5.83H13.74V12.05c0-1,0-3.18,5.46-3.18,5.29,0,5.46,2.08,5.47,3.08H22.5v5h9.34V12H29.67c0-2-.9-8.08-10.47-8.08S8.74,10.13,8.74,12.05V23.52H8.4A5.82,5.82,0,0,0,5,34.09v5.22a17,17,0,0,0,8,14.35v6.47h5V55.79a16.87,16.87,0,0,0,4,.51H42.15a16.89,16.89,0,0,0,4.05-.51v4.34h5V53.66a17,17,0,0,0,7.94-14.35V34A5.82,5.82,0,0,0,61.43,29.35Zm-53-.83H55.6a.83.83,0,0,1,0,1.66H8.4a.83.83,0,0,1,0-1.66ZM42.15,51.3H22a12,12,0,0,1-12-12V35.18H54.14v4.13A12,12,0,0,1,42.15,51.3Z"/></svg>