<svg xmlns="http://www.w3.org/2000/svg" viewBox="0 0 64 64"><defs><style>.cls-1{fill:#ed1c24;}</style></defs><g id="outlines-expanded"><g id="tub-stroked"><path class="cls-1" d="M60.34,37.43v9.64a6.49,6.49,0,0,1-6.48,6.48H10.14a6.49,6.49,0,0,1-6.48-6.48V37.43H60.34m1.5-1.5H2.16V47.07a8,8,0,0,0,8,8H53.86a8,8,0,0,0,8-8V35.93Z"/><path class="cls-1" d="M62.5,33.11v2.82H1.5V33.11h61m.55-1.5H1a1,1,0,0,0-.95,1v3.91a1,1,0,0,0,1,1h62.1a1,1,0,0,0,1-1V32.56a1,1,0,0,0-1-1Z"/><path class="cls-1" d="M59.54,31.61H58V11.86a6.51,6.51,0,0,0-1.65-4.79,6.71,6.71,0,0,0-4.81-1.72h0c-1.06,0-6.19.32-6.19,6.51h-1.5c0-7.78,6.88-8,7.66-8h0A8.22,8.22,0,0,1,57.45,6a7.94,7.94,0,0,1,2.09,5.85Z"/><path class="cls-1" d="M13.38,55.05v3.6H12.11v-3.6h1.27m1.5-1.5H10.61v6.6h4.27v-6.6Z"/><path class="cls-1" d="M51.89,55.05v3.6H50.62v-3.6h1.27m1.5-1.5H49.12v6.6h4.27v-6.6Z"/><path class="cls-1" d="M49.79,14.28v1.19H39.47V14.28H49.79m1-1.5H38.47a.5.5,0,0,0-.5.5v3.19a.51.51,0,0,0,.5.5H50.79a.51.51,0,0,0,.5-.5V13.28a.5.5,0,0,0-.5-.5Z"/><path class="cls-1" d="M45.44,11.89v.85H43.82v-.85h1.62m.5-1.5H43.32a1,1,0,0,0-1,1v2.85h4.62V11.39a1,1,0,0,0-1-1Z"/></g></g></svg>