<svg id="Layer_1" data-name="Layer 1" xmlns="http://www.w3.org/2000/svg" viewBox="0 0 670.15 105.73"><defs><style>.cls-1{fill:#f2eee9;}.cls-2{fill:#ed6830;}</style></defs><path class="cls-1" d="M207.76,19.48V85.15a.73.73,0,0,1-.72.72h-9.16a.72.72,0,0,1-.72-.72V46.6a.73.73,0,0,0-1.3-.44L178.47,69a.73.73,0,0,1-.57.29H175a.72.72,0,0,1-.57-.29L157,46.06a.73.73,0,0,0-1.3.44V85.15a.72.72,0,0,1-.72.72h-9.16a.72.72,0,0,1-.72-.72V19.48a.72.72,0,0,1,.72-.72h2.62a.73.73,0,0,1,.58.29L175.88,54.9a.72.72,0,0,0,1.15,0l26.91-35.85a.73.73,0,0,1,.58-.29H207A.73.73,0,0,1,207.76,19.48Z"/><path class="cls-1" d="M263.24,85.57,244.87,60.66a.71.71,0,0,0-.58-.29h-11a.72.72,0,0,0-.72.72V85.15a.72.72,0,0,1-.72.72h-9.16a.72.72,0,0,1-.72-.72V20.58a.72.72,0,0,1,.72-.72h23.38c13.3,0,22.4,8.3,22.4,20.2a19.24,19.24,0,0,1-11.86,18.26.72.72,0,0,0-.3,1.08l18.43,25.32a.72.72,0,0,1-.58,1.15H263.82A.7.7,0,0,1,263.24,85.57ZM232.55,50.24a.72.72,0,0,0,.72.72h12.58c7.3,0,11.7-4.4,11.7-10.8s-4.4-10.9-11.7-10.9H233.27a.73.73,0,0,0-.72.72Z"/><path class="cls-1" d="M284.36,67.42a.72.72,0,0,1,1,.16c4.32,6,9.52,9.89,16.87,9.89,6.8,0,11.41-3.6,11.41-9.2,0-4.7-2.81-6.7-9.71-9.9l-7.3-3.4c-9.6-4.41-15.4-9.51-15.4-18.31,0-10.8,9.4-17.9,20.8-17.9A24.3,24.3,0,0,1,323,30a.72.72,0,0,1-.18.95l-6.29,4.85a.73.73,0,0,1-1-.16c-3.45-4.81-8.09-7.39-13.47-7.39-5.6,0-10,2.8-10,8,.4,5.2,2.7,6.1,9.2,9.4l7.4,3.4c10.71,4.91,15.81,10.11,15.81,18.81,0,11.5-9.41,19.1-22.11,19.1a28,28,0,0,1-24.57-13.75.71.71,0,0,1,.19-.94Z"/><path class="cls-1" d="M362,19.86h9.16a.72.72,0,0,1,.72.72V45.44a.72.72,0,0,0,.72.72h31.76a.72.72,0,0,0,.72-.72V20.58a.72.72,0,0,1,.72-.72h9.16a.72.72,0,0,1,.72.72V85.15a.72.72,0,0,1-.72.72h-9.16a.73.73,0,0,1-.72-.72V56.39a.72.72,0,0,0-.72-.72H372.57a.72.72,0,0,0-.72.72V85.15a.72.72,0,0,1-.72.72H362a.72.72,0,0,1-.72-.72V20.58A.72.72,0,0,1,362,19.86Z"/><path class="cls-1" d="M460.55,18.76c18.7-.3,35.11,15.2,34.71,34.1.4,18.91-16,34.41-34.71,34.11-18.9.3-35-15.2-34.6-34.11C425.65,34,441.75,18.46,460.55,18.76Zm.1,9.7c-13.7,0-23.7,10.4-23.7,24.3,0,14.11,10,24.51,23.7,24.51,13.5,0,23.7-10.4,23.7-24.51C484.35,39,474.15,28.46,460.65,28.46Z"/><path class="cls-1" d="M505.57,19.86h9.16a.72.72,0,0,1,.72.72V59.87c0,11.2,6.9,17.4,16.6,17.4s16.4-6.2,16.4-17.4V20.58a.72.72,0,0,1,.72-.72h9.16a.72.72,0,0,1,.72.72V59.17c0,17.4-11.5,27.8-27,27.8-15.8,0-27.2-10.4-27.2-27.8V20.58A.72.72,0,0,1,505.57,19.86Z"/><path class="cls-1" d="M574.26,67.42a.72.72,0,0,1,1,.16c4.32,6,9.52,9.89,16.87,9.89,6.8,0,11.4-3.6,11.4-9.2,0-4.7-2.8-6.7-9.7-9.9l-7.3-3.4c-9.6-4.41-15.4-9.51-15.4-18.31,0-10.8,9.4-17.9,20.8-17.9a24.3,24.3,0,0,1,21,11.25.73.73,0,0,1-.18.95l-6.29,4.85a.73.73,0,0,1-1-.16c-3.46-4.81-8.09-7.39-13.47-7.39-5.6,0-10,2.8-10,8,.4,5.2,2.7,6.1,9.2,9.4l7.4,3.4c10.7,4.91,15.8,10.11,15.8,18.81,0,11.5-9.4,19.1-22.1,19.1a28,28,0,0,1-24.57-13.75.72.72,0,0,1,.18-.94Z"/><path class="cls-1" d="M626.27,19.86h42a.72.72,0,0,1,.72.72v8.06a.72.72,0,0,1-.72.72H636.87a.72.72,0,0,0-.72.72V45.54a.72.72,0,0,0,.72.72h23.26a.72.72,0,0,1,.72.72v7.77a.72.72,0,0,1-.72.72H636.87a.72.72,0,0,0-.72.72V75.65a.72.72,0,0,0,.72.72h32.56a.72.72,0,0,1,.72.72v8.06a.72.72,0,0,1-.72.72H626.27a.72.72,0,0,1-.72-.72V20.58A.72.72,0,0,1,626.27,19.86Z"/><path class="cls-2" d="M96.68,0a1,1,0,0,0-.76.35L60.67,41.89,52.85,51.1l-8.52,10-4.79,5.64-8.4,9.91a1,1,0,0,0-.24.65V92.73H13V24.22l27.18,32,8.52-10L9.79.35A1,1,0,0,0,9,0H1A1,1,0,0,0,0,1V104.73a1,1,0,0,0,1,1H104.72a1,1,0,0,0,1-1V1a1,1,0,0,0-1-1ZM61.81,92.73H43.9v-11l9-10.55,9,10.55Zm30.91,0H74.81V77.34a1,1,0,0,0-.24-.65L61.38,61.14,92.72,24.22Z"/></svg>